<?xml version="1.0" encoding="utf-8"?>
<svg xmlns="http://www.w3.org/2000/svg" xmlns:xlink="http://www.w3.org/1999/xlink" version="1.1" x="0" y="0" width="110" height="115" viewBox="0, 0, 110, 115">
  <g id="Layer_1">
    <path d="M5.2,28.75 L55,0 L104.8,28.75 L104.8,86.25 L55,115 L5.2,86.25 z" fill="#50B273"/>
    <path d="M55,0 L104.8,28.75 L104.8,86.25 z" fill="#000000" opacity="0.18"/>
    <path d="M104.8,86.25 L55,115 L5.2,86.25 z" fill="#000000" opacity="0.32"/>
    <path d="M5.2,86.25 L5.2,28.75 L55,0 z" fill="#000000" opacity="0.12"/>
    <path d="M47.8,52.12 L53.56,52.12 C58.66,52.12 60.56,50.86 60.56,46.78 C60.56,43.01 58.94,41.68 51.56,41.68 C48.026,41.686 44.505,42.129 41.08,43 L39.52,36.16 C43.976,35.187 48.519,34.664 53.08,34.6 C65.08,34.6 68.92,37.71 68.92,45.28 C68.92,50.8 67.42,54.63 59.98,55.28 C67.9,55.63 69.76,59.83 69.76,66.13 C69.76,75.19 64.84,78.25 52.96,78.25 C48.342,78.199 43.74,77.697 39.22,76.75 L40.72,69.91 C44.222,70.721 47.806,71.123 51.4,71.11 C59.4,71.11 61.18,69.55 61.18,65.05 C61.18,60.31 59.18,58.81 53.74,58.81 L47.8,58.81 z" fill="#FFFFFF"/>
  </g>
</svg>