<?xml version="1.0" encoding="utf-8"?>
<svg xmlns="http://www.w3.org/2000/svg" xmlns:xlink="http://www.w3.org/1999/xlink" version="1.1" x="0" y="0" width="110" height="115" viewBox="0, 0, 110, 115">
  <g id="Layer_1">
    <path d="M5.2,28.75 L55,0 L104.8,28.75 L104.8,86.25 L55,115 L5.2,86.25 z" fill="#50B273"/>
    <path d="M55,0 L104.8,28.75 L104.8,86.25 z" fill="#000000" opacity="0.18"/>
    <path d="M104.8,86.25 L55,115 L5.2,86.25 z" fill="#000000" opacity="0.32"/>
    <path d="M5.2,86.25 L5.2,28.75 L55,0 z" fill="#000000" opacity="0.12"/>
    <path d="M37.36,66.7 L37.36,64.24 C41.74,56.38 49.48,43.48 55.24,35.63 L65.8,35.63 L65.8,60.16 L71.38,60.16 L71.38,66.7 L65.8,66.7 L65.8,77.44 L58.24,77.44 L58.24,66.7 z M58.24,42.47 C54.133,48.13 50.379,54.038 47,60.16 L58.24,60.16 z" fill="#FFFFFF"/>
  </g>
</svg>