<?xml version="1.0" encoding="UTF-8"?>
<!DOCTYPE svg PUBLIC "-//W3C//DTD SVG 1.1//EN" "http://www.w3.org/Graphics/SVG/1.1/DTD/svg11.dtd">
<svg version="1.1" xmlns="http://www.w3.org/2000/svg" xmlns:xlink="http://www.w3.org/1999/xlink" x="0" y="0" width="110" height="115" viewBox="0, 0, 110, 115">
  <g id="Layer_1">
    <path d="M0.31,39.73 L21.2,11 L55,0 L88.8,11 L109.69,39.75 L109.69,75.27 L88.8,104 L55,115 L21.2,104 L0.31,75.27 z" fill="#832935"/>
    <path d="M96.46,44.03 L109.69,39.73 L88.8,10.98 L55,0 L55,13.91 L96.46,44.03 z" fill="#541B22"/>
    <path d="M55,13.91 L55,0 L21.2,10.98 L0.31,39.73 L13.54,44.03 L55,13.91 z" fill="#6E222C"/>
    <path d="M13.54,44.03 L0.31,39.73 L0.32,75.27 L21.2,104.02 L29.38,92.77 L13.54,44.03 z" fill="#541B22"/>
    <path d="M29.38,92.77 L21.2,104.02 L55,115 L88.8,104.02 L80.62,92.77 L29.38,92.77 z" fill="#300F14"/>
    <path d="M80.62,92.77 L88.8,104.02 L109.69,75.27 L109.69,39.73 L96.46,44.03 L80.62,92.77 z" fill="#45161C"/>
  </g>
</svg>
