<?xml version="1.0" encoding="utf-8"?>
<svg xmlns="http://www.w3.org/2000/svg" xmlns:xlink="http://www.w3.org/1999/xlink" version="1.1" x="0" y="0" width="110" height="115" viewBox="0, 0, 110, 115">
  <g id="Layer_1">
    <path d="M104.95,28.5 L104.65,85.99 L54.99,115 L5.36,85.99 L5.06,28.5 L54.99,0 L104.95,28.5 z" fill="#337EB5"/>
    <path d="M54.99,115 L89.8,77.43 L20.18,77.43 L54.99,115 z" fill="#000000" opacity="0.25"/>
    <path d="M104.94,28.5 L54.99,17.14 L89.8,77.43 L104.94,28.5 z" fill="#000000" opacity="0.15"/>
    <path d="M5.05,28.5 L20.18,77.43 L54.99,17.14 L5.05,28.5 z" fill="#000000" opacity="0.15"/>
    <path d="M54.99,17.14 L5.05,28.5 L54.99,0 L54.99,17.14 z" fill="#000000" opacity="0.05"/>
    <path d="M54.99,17.14 L104.94,28.5 L54.99,0 L54.99,17.14 z" fill="#000000" opacity="0.1"/>
    <path d="M20.18,77.43 L54.99,115 L5.34,86 L20.18,77.43 z" fill="#000000" opacity="0.35"/>
    <path d="M20.18,77.43 L5.05,28.5 L5.34,86 L20.18,77.43 z" fill="#000000" opacity="0.25"/>
    <path d="M89.8,77.43 L104.94,28.5 L104.64,86 L89.8,77.43 z" fill="#000000" opacity="0.25"/>
    <path d="M89.8,77.43 L54.99,115 L104.64,86 L89.8,77.43 z" fill="#000000" opacity="0.35"/>
    <path d="M57.74,63.26 C56.95,63.36 55.46,63.42 54.87,63.42 C48.4,63.42 46.35,61.64 46.35,56.49 C46.35,50.65 48.66,48.71 55,48.71 C61.93,48.71 63.78,50.45 63.78,56.66 C63.78,63.23 60.05,68.08 55.73,72.27 L50.32,72.27 C53.38,69.37 56.22,66.26 57.74,63.26 z M58.9,59.5 C59.094,58.722 59.192,57.922 59.19,57.12 C59.19,53.12 58.19,52.6 55,52.6 C51.6,52.6 50.91,53.72 50.91,56.3 C50.91,59.13 51.64,59.73 55.33,59.73 C56.524,59.736 57.717,59.659 58.9,59.5 z" fill="#FFFFFF"/>
  </g>
</svg>